<svg width="46" height="34" viewBox="0 0 46 34" fill="none" xmlns="http://www.w3.org/2000/svg">
<path d="M22.4739 0.585039L0.898008 22.1609C0.607406 22.4515 0.607406 22.9227 0.898008 23.2133L11.1586 33.4738C11.4492 33.7644 11.9203 33.7644 12.2109 33.4738L33.7868 11.8979C34.0774 11.6073 34.0774 11.1362 33.7868 10.8456L23.5262 0.58504C23.2356 0.294437 22.7645 0.294436 22.4739 0.585039Z" fill="#FFD00B"/>
<path d="M22.3854 0.673501L12.3018 10.7571C11.9623 11.0965 11.9623 11.6469 12.3018 11.9864L33.7007 33.3853C34.0401 33.7248 34.5905 33.7247 34.93 33.3853L45.0136 23.3017C45.3531 22.9622 45.3531 22.4118 45.0136 22.0724L23.6147 0.6735C23.2752 0.334023 22.7248 0.334025 22.3854 0.673501Z" fill="#FFD00B"/>
</svg>
