<svg width="397" height="397" viewBox="0 0 397 397" fill="none" xmlns="http://www.w3.org/2000/svg">
<path d="M390.684 0H138.529C135.133 0 132.38 2.75319 132.38 6.14943V126.063C132.38 129.459 135.133 132.213 138.529 132.213H390.684C394.08 132.213 396.833 129.459 396.833 126.063V6.14943C396.833 2.75319 394.08 0 390.684 0Z" fill="#FFDC4C"/>
<path d="M389.649 0H271.804C267.837 0 264.62 3.21623 264.62 7.18365V257.27C264.62 261.237 267.837 264.453 271.804 264.453H389.649C393.617 264.453 396.833 261.237 396.833 257.27V7.18365C396.833 3.21623 393.617 0 389.649 0Z" fill="#FFDC4C"/>
<path d="M124.162 264.453H8.38486C3.84626 264.453 0.166992 268.133 0.166992 272.671V388.448C0.166992 392.987 3.84626 396.666 8.38486 396.666H124.162C128.7 396.666 132.38 392.987 132.38 388.448V272.671C132.38 268.133 128.7 264.453 124.162 264.453Z" fill="#FFDC4C"/>
<path d="M16.2673 16.1002L380.733 380.565C386.686 386.519 382.466 396.666 374.052 396.666H218.919C216.431 396.666 214.027 395.66 212.238 393.899L2.93423 184.566C1.17326 182.806 0.166992 180.402 0.166992 177.886V22.7527C0.166992 14.3392 10.3135 10.1464 16.2673 16.0722V16.1002Z" fill="#FFDC4C"/>
</svg>
