<svg width="664" height="835" viewBox="0 0 664 835" fill="none" xmlns="http://www.w3.org/2000/svg">
<mask id="path-1-inside-1_42_2" fill="white">
<path fill-rule="evenodd" clip-rule="evenodd" d="M648.878 0H651.055C658.204 0 664 5.79559 664 12.9448L664 15.1219L664 265.369C664 265.382 664 265.396 664 265.409V541.564C664 549.916 657.229 556.686 648.878 556.686H400.808C392.456 556.686 385.686 549.916 385.686 541.564V278.314H120.258C113.109 278.314 107.314 272.518 107.314 265.369V12.9448C107.314 5.79559 113.109 0 120.258 0H400.808H648.878Z"/>
</mask>
<path d="M664 12.9448L665 12.9448V12.9448H664ZM664 15.1219L663 15.1219V15.1219H664ZM664 265.369H665H664ZM385.686 278.314H386.686V277.314H385.686V278.314ZM651.055 -1H648.878V1H651.055V-1ZM665 12.9448C665 5.24331 658.756 -1 651.055 -1V1C657.652 1 663 6.34788 663 12.9448H665ZM665 15.1219L665 12.9448L663 12.9448L663 15.1219L665 15.1219ZM665 265.369L665 15.1219H663L663 265.369H665ZM665 265.409C665 265.404 665 265.398 665 265.391C665 265.385 665 265.377 665 265.369H663C663 265.374 663 265.38 663 265.387C663 265.393 663 265.401 663 265.409H665ZM665 541.564V265.409H663V541.564H665ZM648.878 557.686C657.782 557.686 665 550.468 665 541.564H663C663 549.363 656.677 555.686 648.878 555.686V557.686ZM400.808 557.686H648.878V555.686H400.808V557.686ZM384.686 541.564C384.686 550.468 391.904 557.686 400.808 557.686V555.686C393.009 555.686 386.686 549.363 386.686 541.564H384.686ZM384.686 278.314V541.564H386.686V278.314H384.686ZM120.258 279.314H385.686V277.314H120.258V279.314ZM106.314 265.369C106.314 273.07 112.557 279.314 120.258 279.314V277.314C113.661 277.314 108.314 271.966 108.314 265.369H106.314ZM106.314 12.9448V265.369H108.314V12.9448H106.314ZM120.258 -1C112.557 -1 106.314 5.24331 106.314 12.9448H108.314C108.314 6.34788 113.661 1 120.258 1V-1ZM400.808 -1H120.258V1H400.808V-1ZM648.878 -1H400.808V1H648.878V-1Z" fill="#11C94E" mask="url(#path-1-inside-1_42_2)"/>
<path d="M-153.701 557.186H90.0147C99.2925 557.186 106.814 564.707 106.814 573.985V817.7C106.814 826.978 99.2925 834.499 90.0147 834.499H-153.701C-162.979 834.499 -170.5 826.978 -170.5 817.7V573.985C-170.5 564.707 -162.979 557.186 -153.701 557.186Z" stroke="#11C94E"/>
<path d="M-137.608 34.043V34.0997L-137.462 34.2461L629.754 801.462C641.971 813.679 633.312 834.5 616.045 834.5H289.483C284.381 834.5 279.445 832.436 275.771 828.819L-164.821 388.168L-165.175 388.522L-164.821 388.168C-168.435 384.555 -170.5 379.621 -170.5 374.459V47.8965C-170.5 30.7017 -149.846 22.0956 -137.608 34.043Z" stroke="#11C94E"/>
</svg>
