<svg width="468" height="468" viewBox="0 0 468 468" fill="none" xmlns="http://www.w3.org/2000/svg">
<path fill-rule="evenodd" clipRule="evenodd" d="M320.486 0H459.524C459.536 0 459.549 2.52445e-05 459.561 7.56836e-05H460.745C464.752 7.56836e-05 468 3.24839 468 7.25538V148.734C468 148.744 468 148.754 468 148.764V303.536C468 308.216 464.205 312.011 459.524 312.011H320.486C315.806 312.011 312.011 308.216 312.011 303.536V155.989H163.244C159.237 155.989 155.989 152.741 155.989 148.734V7.25538C155.989 3.24839 159.237 7.56836e-05 163.244 7.56836e-05H320.45C320.462 2.52445e-05 320.474 0 320.486 0Z" fill="#083537"/>
<path d="M146.293 312.011H9.69572C4.34092 312.011 0 316.352 0 321.706V458.304C0 463.659 4.34092 468 9.69572 468H146.293C151.648 468 155.989 463.659 155.989 458.304V321.706C155.989 316.352 151.648 312.011 146.293 312.011Z" fill="#083537"/>
<path d="M18.9957 18.9956L449.004 449.004C456.029 456.029 451.049 468 441.122 468H258.091C255.156 468 252.32 466.813 250.209 464.735L3.26489 217.758C1.18723 215.68 0 212.844 0 209.876V26.8445C0 16.918 11.9712 11.9712 18.9957 18.9626V18.9956Z" fill="#083537"/>
</svg>
