<svg width="514" height="751" viewBox="0 0 514 751" fill="none" xmlns="http://www.w3.org/2000/svg">
<mask id="path-1-inside-1_42_8" fill="white">
<path fill-rule="evenodd" clip-rule="evenodd" d="M13.601 751H11.6429C5.21286 751 0.000305176 745.787 0.000305176 739.357V737.399V512.327V263.917C0.000305176 256.405 6.0896 250.316 13.601 250.316H236.715C244.227 250.316 250.316 256.405 250.316 263.917V500.684H489.042C495.472 500.684 500.684 505.897 500.684 512.327V739.357C500.684 745.787 495.472 751 489.042 751H236.715H13.601Z"/>
</mask>
<path d="M250.316 500.684H249.316V501.684H250.316V500.684ZM11.6429 752H13.601V750H11.6429V752ZM-0.999695 739.357C-0.999695 746.34 4.66058 752 11.6429 752V750C5.76514 750 1.00031 745.235 1.00031 739.357H-0.999695ZM-0.999695 737.399V739.357H1.00031V737.399H-0.999695ZM-0.999695 512.327V737.399H1.00031V512.327H-0.999695ZM-0.999695 263.917V512.327H1.00031V263.917H-0.999695ZM13.601 249.316C5.53732 249.316 -0.999695 255.853 -0.999695 263.917H1.00031C1.00031 256.957 6.64188 251.316 13.601 251.316V249.316ZM236.715 249.316H13.601V251.316H236.715V249.316ZM251.316 263.917C251.316 255.853 244.779 249.316 236.715 249.316V251.316C243.674 251.316 249.316 256.957 249.316 263.917H251.316ZM251.316 500.684V263.917H249.316V500.684H251.316ZM489.042 499.684H250.316V501.684H489.042V499.684ZM501.684 512.327C501.684 505.345 496.024 499.684 489.042 499.684V501.684C494.92 501.684 499.684 506.449 499.684 512.327H501.684ZM501.684 739.357V512.327H499.684V739.357H501.684ZM489.042 752C496.024 752 501.684 746.34 501.684 739.357H499.684C499.684 745.235 494.92 750 489.042 750V752ZM236.715 752H489.042V750H236.715V752ZM13.601 752H236.715V750H13.601V752Z" fill="#11C94E" mask="url(#path-1-inside-1_42_8)"/>
<path d="M735.441 249.816H516.243C507.926 249.816 501.184 243.074 501.184 234.758V15.5595C501.184 7.2428 507.926 0.500763 516.243 0.500763H735.441C743.758 0.500763 750.5 7.2428 750.5 15.5595V234.758C750.5 243.074 743.758 249.816 735.441 249.816Z" stroke="#11C94E"/>
<path d="M721.018 720.361V720.31L720.871 720.164L30.8362 30.1287C19.8802 19.1727 27.6453 0.499817 43.1307 0.499817H336.841C341.417 0.499817 345.843 2.35083 349.139 5.59534L745.407 401.917L745.761 401.563L745.407 401.917C748.648 405.158 750.5 409.582 750.5 414.211V707.922C750.5 723.335 731.995 731.053 721.018 720.361Z" stroke="#11C94E"/>
</svg>
