<svg width="387" height="805" viewBox="0 0 387 805" fill="none" xmlns="http://www.w3.org/2000/svg">
<g opacity="0.5">
<path fill-rule="evenodd" clip-rule="evenodd" d="M551.264 0H790.421C790.432 0 790.443 1.20605e-05 790.454 3.6169e-05H792.52C799.412 3.6169e-05 805 5.58741 805 12.4798V255.835C805 255.853 805 255.872 805 255.89V522.107C805 530.158 798.473 536.685 790.421 536.685H551.264C543.212 536.685 536.685 530.158 536.685 522.107V268.314H280.794C273.902 268.314 268.314 262.727 268.314 255.835V12.4798C268.314 5.58741 273.902 3.6169e-05 280.794 3.6169e-05H551.231C551.242 1.20605e-05 551.253 0 551.264 0Z" fill="#0F5B5B"/>
<path d="M251.637 536.685H16.6775C7.46676 536.685 0 544.152 0 553.363V788.322C0 797.533 7.46676 804.999 16.6775 804.999H251.637C260.848 804.999 268.314 797.533 268.314 788.322V553.363C268.314 544.152 260.848 536.685 251.637 536.685Z" fill="#0F5B5B"/>
<path d="M32.6742 32.6748L772.325 772.326C784.408 784.409 775.842 805 758.768 805H443.938C438.89 805 434.011 802.958 430.381 799.384L5.61588 374.563C2.04214 370.989 0 366.111 0 361.005V46.1756C0 29.1011 20.5916 20.5922 32.6742 32.6181V32.6748Z" fill="#0F5B5B"/>
</g>
</svg>
