<svg width="159" height="805" viewBox="0 0 159 805" fill="none" xmlns="http://www.w3.org/2000/svg">
<g opacity="0.5">
<path fill-rule="evenodd" clipRule="evenodd" d="M-94.7361 0H144.421C144.432 0 144.443 1.20605e-05 144.454 3.6169e-05H146.52C153.412 3.6169e-05 159 5.58741 159 12.4798V255.835C159 255.853 159 255.872 159 255.89V522.107C159 530.158 152.473 536.685 144.421 536.685H-94.7361C-102.788 536.685 -109.315 530.158 -109.315 522.107V268.314H-365.206C-372.098 268.314 -377.686 262.727 -377.686 255.835V12.4798C-377.686 5.58741 -372.098 3.6169e-05 -365.206 3.6169e-05H-94.7689C-94.758 1.20605e-05 -94.747 0 -94.7361 0Z" fill="#0F5B5B"/>
<path d="M-613.326 32.6748L126.325 772.326C138.408 784.409 129.842 805 112.768 805H-202.062C-207.11 805 -211.989 802.958 -215.619 799.384L-640.384 374.563C-643.958 370.989 -646 366.111 -646 361.005V46.1756C-646 29.1011 -625.408 20.5922 -613.326 32.6181V32.6748Z" fill="#0F5B5B"/>
</g>
</svg>
