<svg width="158" height="158" viewBox="0 0 158 158" fill="none" xmlns="http://www.w3.org/2000/svg">
<path d="M154.326 0H3.67403C1.64492 0 0 1.64492 0 3.67403V75.3176C0 77.3467 1.64492 78.9916 3.67403 78.9916H154.326C156.355 78.9916 158 77.3467 158 75.3176V3.67403C158 1.64492 156.355 0 154.326 0Z" fill="#11C94E"/>
<path d="M153.708 0H83.3002C80.9299 0 79.0083 1.92156 79.0083 4.29194V153.708C79.0083 156.078 80.9299 158 83.3002 158H153.708C156.078 158 158 156.078 158 153.708V4.29194C158 1.92156 156.078 0 153.708 0Z" fill="#11C94E"/>
</svg>
