<svg width="158" height="158" viewBox="0 0 158 158" fill="none" xmlns="http://www.w3.org/2000/svg">
<path d="M3.67403 158L154.326 158C156.355 158 158 156.355 158 154.326L158 82.6824C158 80.6533 156.355 79.0084 154.326 79.0084L3.67403 79.0083C1.64492 79.0083 6.76187e-06 80.6533 6.58447e-06 82.6824L3.21194e-07 154.326C1.43803e-07 156.355 1.64491 158 3.67403 158Z" fill="#11C94E"/>
<path d="M4.29194 158L74.6997 158C77.0701 158 78.9916 156.078 78.9916 153.708L78.9917 4.29193C78.9917 1.92155 77.0701 -1.67988e-07 74.6997 -3.75213e-07L4.29195 -6.53046e-06C1.92158 -6.73768e-06 6.01542e-06 1.92155 5.80819e-06 4.29192L-7.25418e-06 153.708C-7.46141e-06 156.078 1.92157 158 4.29194 158Z" fill="#11C94E"/>
</svg>
