<svg width="290" height="571" viewBox="0 0 290 571" fill="none" xmlns="http://www.w3.org/2000/svg">
<mask id="path-1-inside-1_32_128" fill="white">
<path fill-rule="evenodd" clip-rule="evenodd" d="M279.659 0H281.148C286.037 0 290 3.96321 290 8.85209V181.468C290 181.483 290 181.499 290 181.515V370.339C290 376.05 285.37 380.68 279.659 380.68H110.021C104.31 380.68 99.6799 376.05 99.6799 370.339V190.32H-81.8281C-86.717 190.32 -90.6802 186.357 -90.6802 181.468V8.85209C-90.6802 3.96321 -86.717 0 -81.8281 0H110.021H279.659Z"/>
</mask>
<path d="M290 181.515L289 181.509V181.515H290ZM99.6799 190.32H100.68V189.32H99.6799V190.32ZM281.148 -1H279.659V1H281.148V-1ZM291 8.85209C291 3.41093 286.589 -1 281.148 -1V1C285.484 1 289 4.5155 289 8.85209H291ZM291 181.468V8.85209H289V181.468H291ZM291 181.521C291 181.502 291 181.485 291 181.468H289C289 181.482 289 181.496 289 181.509L291 181.521ZM291 370.339V181.515H289V370.339H291ZM279.659 381.68C285.922 381.68 291 376.603 291 370.339H289C289 375.498 284.818 379.68 279.659 379.68V381.68ZM110.021 381.68H279.659V379.68H110.021V381.68ZM98.6799 370.339C98.6799 376.603 103.757 381.68 110.021 381.68V379.68C104.862 379.68 100.68 375.498 100.68 370.339H98.6799ZM98.6799 190.32V370.339H100.68V190.32H98.6799ZM-81.8281 191.32H99.6799V189.32H-81.8281V191.32ZM-91.6802 181.468C-91.6802 186.909 -87.2692 191.32 -81.8281 191.32V189.32C-86.1647 189.32 -89.6802 185.804 -89.6802 181.468H-91.6802ZM-91.6802 8.85209V181.468H-89.6802V8.85209H-91.6802ZM-81.8281 -1C-87.2692 -1 -91.6802 3.41093 -91.6802 8.85209H-89.6802C-89.6802 4.5155 -86.1647 1 -81.8281 1V-1ZM110.021 -1H-81.8281V1H110.021V-1ZM279.659 -1H110.021V1H279.659V-1Z" fill="#11C94E" mask="url(#path-1-inside-1_32_128)"/>
<path d="M-258.324 23.3462V23.3837L-258.177 23.5301L266.47 548.177C274.724 556.431 268.874 570.5 257.207 570.5H33.8929C30.4466 570.5 27.1112 569.106 24.627 566.66L-276.663 265.33C-279.105 262.888 -280.5 259.555 -280.5 256.067V32.7529C-280.5 21.1576 -266.599 15.3421 -258.324 23.3462Z" stroke="#11C94E"/>
</svg>
