<svg width="356" height="411" viewBox="0 0 356 411" fill="none" xmlns="http://www.w3.org/2000/svg">
<mask id="path-1-inside-1_32_244" fill="white">
<path fill-rule="evenodd" clip-rule="evenodd" d="M348.556 0H349.628C353.147 0 356 2.85268 356 6.37164V130.619C356 130.63 356 130.642 356 130.653V266.566C356 270.677 352.667 274.01 348.556 274.01H226.453C222.342 274.01 219.009 270.677 219.009 266.566V136.99H88.3619C84.8429 136.99 81.9902 134.138 81.9902 130.619V6.37164C81.9902 2.85268 84.8429 0 88.3619 0H226.453H348.556Z"/>
</mask>
<path d="M356 130.653L355 130.648V130.653H356ZM219.009 136.99H220.009V135.99H219.009V136.99ZM349.628 -1H348.556V1H349.628V-1ZM357 6.37164C357 2.3004 353.699 -1 349.628 -1V1C352.595 1 355 3.40497 355 6.37164H357ZM357 130.619V6.37164H355V130.619H357ZM357 130.658C357 130.645 357 130.632 357 130.619H355C355 130.628 355 130.638 355 130.648L357 130.658ZM357 266.566V130.653H355V266.566H357ZM348.556 275.01C353.22 275.01 357 271.229 357 266.566H355C355 270.125 352.115 273.01 348.556 273.01V275.01ZM226.453 275.01H348.556V273.01H226.453V275.01ZM218.009 266.566C218.009 271.229 221.79 275.01 226.453 275.01V273.01C222.894 273.01 220.009 270.125 220.009 266.566H218.009ZM218.009 136.99V266.566H220.009V136.99H218.009ZM88.3619 137.99H219.009V135.99H88.3619V137.99ZM80.9902 130.619C80.9902 134.69 84.2906 137.99 88.3619 137.99V135.99C85.3952 135.99 82.9902 133.585 82.9902 130.619H80.9902ZM80.9902 6.37164V130.619H82.9902V6.37164H80.9902ZM88.3619 -1C84.2906 -1 80.9902 2.3004 80.9902 6.37164H82.9902C82.9902 3.40497 85.3952 1 88.3619 1V-1ZM226.453 -1H88.3619V1H226.453V-1ZM348.556 -1H226.453V1H348.556V-1Z" fill="#FFD00B" mask="url(#path-1-inside-1_32_244)"/>
<path d="M-46.4852 274.509H73.4755C77.902 274.509 81.4903 278.098 81.4903 282.524V402.485C81.4903 406.911 77.902 410.5 73.4755 410.5H-46.4852C-50.9116 410.5 -54.5 406.911 -54.5 402.485V282.524C-54.5 278.098 -50.9116 274.509 -46.4852 274.509Z" stroke="#FFD00B"/>
<path d="M-38.8179 16.8639V16.8892L-38.6714 17.0357L338.964 394.671C344.817 400.524 340.67 410.5 332.396 410.5H171.657C169.214 410.5 166.849 409.512 165.086 407.777C165.086 407.777 165.086 407.777 165.086 407.776L-51.7792 190.883L-52.1328 191.236L-51.7792 190.883C-53.5106 189.151 -54.5 186.787 -54.5 184.314V23.5751C-54.5 15.3733 -44.6912 11.2491 -38.8179 16.8639Z" stroke="#FFD00B"/>
</svg>
