<svg width="371" height="411" viewBox="0 0 371 411" fill="none" xmlns="http://www.w3.org/2000/svg">
<mask id="path-1-inside-1_32_146" fill="white">
<path fill-rule="evenodd" clip-rule="evenodd" d="M403.556 0H404.628C408.147 0 411 2.85268 411 6.37164V130.619C411 130.63 411 130.642 411 130.653V266.566C411 270.677 407.667 274.01 403.556 274.01H281.453C277.342 274.01 274.009 270.677 274.009 266.566V136.99H143.362C139.843 136.99 136.99 134.138 136.99 130.619V6.37164C136.99 2.85268 139.843 0 143.362 0H281.453H403.556Z"/>
</mask>
<path d="M411 130.653L410 130.648V130.653H411ZM274.009 136.99H275.009V135.99H274.009V136.99ZM404.628 -1H403.556V1H404.628V-1ZM412 6.37164C412 2.3004 408.699 -1 404.628 -1V1C407.595 1 410 3.40497 410 6.37164H412ZM412 130.619V6.37164H410V130.619H412ZM412 130.658C412 130.645 412 130.632 412 130.619H410C410 130.628 410 130.638 410 130.648L412 130.658ZM412 266.566V130.653H410V266.566H412ZM403.556 275.01C408.22 275.01 412 271.229 412 266.566H410C410 270.125 407.115 273.01 403.556 273.01V275.01ZM281.453 275.01H403.556V273.01H281.453V275.01ZM273.009 266.566C273.009 271.229 276.79 275.01 281.453 275.01V273.01C277.894 273.01 275.009 270.125 275.009 266.566H273.009ZM273.009 136.99V266.566H275.009V136.99H273.009ZM143.362 137.99H274.009V135.99H143.362V137.99ZM135.99 130.619C135.99 134.69 139.291 137.99 143.362 137.99V135.99C140.395 135.99 137.99 133.585 137.99 130.619H135.99ZM135.99 6.37164V130.619H137.99V6.37164H135.99ZM143.362 -1C139.291 -1 135.99 2.3004 135.99 6.37164H137.99C137.99 3.40497 140.395 1 143.362 1V-1ZM281.453 -1H143.362V1H281.453V-1ZM403.556 -1H281.453V1H403.556V-1Z" fill="#FFD00B" mask="url(#path-1-inside-1_32_146)"/>
<path d="M8.51483 274.509H128.475C132.902 274.509 136.49 278.098 136.49 282.524V402.485C136.49 406.911 132.902 410.5 128.475 410.5H8.51483C4.08836 410.5 0.5 406.911 0.5 402.485V282.524C0.5 278.098 4.08836 274.509 8.51483 274.509Z" stroke="#FFD00B"/>
<path d="M16.1821 16.8639V16.8892L16.3286 17.0357L393.964 394.671C399.817 400.524 395.67 410.5 387.396 410.5H226.657C224.214 410.5 221.849 409.512 220.086 407.777C220.086 407.777 220.086 407.777 220.086 407.776L3.22082 190.883L2.86724 191.236L3.22079 190.883C1.48944 189.151 0.5 186.787 0.5 184.314V23.5751C0.5 15.3733 10.3088 11.2491 16.1821 16.8639Z" stroke="#FFD00B"/>
</svg>
