<svg width="366" height="571" viewBox="0 0 366 571" fill="none" xmlns="http://www.w3.org/2000/svg">
<mask id="path-1-inside-1_34_326" fill="white">
<path fill-rule="evenodd" clip-rule="evenodd" d="M10.3412 0H8.85226C3.96341 0 0.000183105 3.96321 0.000183105 8.85209V181.468C0.000183105 181.483 0.000213623 181.499 0.000305176 181.515V370.339C0.000305176 376.05 4.63007 380.68 10.3412 380.68H179.979C185.69 380.68 190.32 376.05 190.32 370.339V190.32H371.828C376.717 190.32 380.68 186.357 380.68 181.468V8.85209C380.68 3.96321 376.717 0 371.828 0H179.979H10.3412Z"/>
</mask>
<path d="M0.000305176 181.515L1.00031 181.509V181.515H0.000305176ZM190.32 190.32H189.32V189.32H190.32V190.32ZM8.85226 -1H10.3412V1H8.85226V-1ZM-0.999817 8.85209C-0.999817 3.41093 3.41113 -1 8.85226 -1V1C4.51569 1 1.00018 4.5155 1.00018 8.85209H-0.999817ZM-0.999817 181.468V8.85209H1.00018V181.468H-0.999817ZM-0.999664 181.521C-0.999786 181.502 -0.999817 181.485 -0.999817 181.468H1.00018C1.00018 181.482 1.00021 181.496 1.00027 181.509L-0.999664 181.521ZM-0.999695 370.339V181.515H1.00031V370.339H-0.999695ZM10.3412 381.68C4.07779 381.68 -0.999695 376.603 -0.999695 370.339H1.00031C1.00031 375.498 5.18234 379.68 10.3412 379.68V381.68ZM179.979 381.68H10.3412V379.68H179.979V381.68ZM191.32 370.339C191.32 376.603 186.243 381.68 179.979 381.68V379.68C185.138 379.68 189.32 375.498 189.32 370.339H191.32ZM191.32 190.32V370.339H189.32V190.32H191.32ZM371.828 191.32H190.32V189.32H371.828V191.32ZM381.68 181.468C381.68 186.909 377.269 191.32 371.828 191.32V189.32C376.165 189.32 379.68 185.804 379.68 181.468H381.68ZM381.68 8.85209V181.468H379.68V8.85209H381.68ZM371.828 -1C377.269 -1 381.68 3.41093 381.68 8.85209H379.68C379.68 4.5155 376.165 1 371.828 1V-1ZM179.979 -1H371.828V1H179.979V-1ZM10.3412 -1H179.979V1H10.3412V-1Z" fill="#11C94E" mask="url(#path-1-inside-1_34_326)"/>
<path d="M548.324 23.3462V23.3836L548.177 23.5301L23.5302 548.177C15.2759 556.431 21.1257 570.5 32.7932 570.5H256.107C259.553 570.5 262.889 569.106 265.373 566.66L566.663 265.33C569.105 262.888 570.5 259.555 570.5 256.067V32.7529C570.5 21.1575 556.599 15.342 548.324 23.3462Z" stroke="#11C94E"/>
</svg>
