<svg width="300" height="571" viewBox="0 0 300 571" fill="none" xmlns="http://www.w3.org/2000/svg">
<mask id="path-1-inside-1_34_320" fill="white">
<path fill-rule="evenodd" clip-rule="evenodd" d="M289.659 0H291.148C296.037 0 300 3.96321 300 8.85209V181.468C300 181.483 300 181.499 300 181.515V370.339C300 376.05 295.37 380.68 289.659 380.68H120.021C114.31 380.68 109.68 376.05 109.68 370.339V190.32H-71.8281C-76.717 190.32 -80.6802 186.357 -80.6802 181.468V8.85209C-80.6802 3.96321 -76.717 0 -71.8281 0H120.021H289.659Z"/>
</mask>
<path d="M300 181.515L299 181.509V181.515H300ZM109.68 190.32H110.68V189.32H109.68V190.32ZM291.148 -1H289.659V1H291.148V-1ZM301 8.85209C301 3.41093 296.589 -1 291.148 -1V1C295.484 1 299 4.5155 299 8.85209H301ZM301 181.468V8.85209H299V181.468H301ZM301 181.521C301 181.502 301 181.485 301 181.468H299C299 181.482 299 181.496 299 181.509L301 181.521ZM301 370.339V181.515H299V370.339H301ZM289.659 381.68C295.922 381.68 301 376.603 301 370.339H299C299 375.498 294.818 379.68 289.659 379.68V381.68ZM120.021 381.68H289.659V379.68H120.021V381.68ZM108.68 370.339C108.68 376.603 113.757 381.68 120.021 381.68V379.68C114.862 379.68 110.68 375.498 110.68 370.339H108.68ZM108.68 190.32V370.339H110.68V190.32H108.68ZM-71.8281 191.32H109.68V189.32H-71.8281V191.32ZM-81.6802 181.468C-81.6802 186.909 -77.2692 191.32 -71.8281 191.32V189.32C-76.1647 189.32 -79.6802 185.804 -79.6802 181.468H-81.6802ZM-81.6802 8.85209V181.468H-79.6802V8.85209H-81.6802ZM-71.8281 -1C-77.2692 -1 -81.6802 3.41093 -81.6802 8.85209H-79.6802C-79.6802 4.5155 -76.1647 1 -71.8281 1V-1ZM120.021 -1H-71.8281V1H120.021V-1ZM289.659 -1H120.021V1H289.659V-1Z" fill="#11C94E" mask="url(#path-1-inside-1_34_320)"/>
<path d="M-248.324 23.3462V23.3836L-248.177 23.5301L276.47 548.177C284.724 556.431 278.874 570.5 267.207 570.5H43.8929C40.4466 570.5 37.1112 569.106 34.627 566.66L-266.663 265.33C-269.105 262.888 -270.5 259.555 -270.5 256.067V32.7529C-270.5 21.1575 -256.599 15.342 -248.324 23.3462Z" stroke="#11C94E"/>
</svg>
