<svg width="149" height="45" viewBox="0 0 149 45" fill="none" xmlns="http://www.w3.org/2000/svg">
<path d="M41.0996 0.0566406H14.5618C14.2044 0.0566406 13.9146 0.346398 13.9146 0.703832V13.3241C13.9146 13.6815 14.2044 13.9713 14.5618 13.9713H41.0996C41.4571 13.9713 41.7468 13.6815 41.7468 13.3241V0.703832C41.7468 0.346398 41.4571 0.0566406 41.0996 0.0566406Z" fill="#11C94E"/>
<path d="M40.9908 0.0566406H28.5882C28.1707 0.0566406 27.8322 0.39513 27.8322 0.812678V27.1328C27.8322 27.5503 28.1707 27.8888 28.5882 27.8888H40.9908C41.4083 27.8888 41.7468 27.5503 41.7468 27.1328V0.812678C41.7468 0.39513 41.4083 0.0566406 40.9908 0.0566406Z" fill="#11C94E"/>
<path d="M13.0497 27.8887H0.864884C0.387222 27.8887 0 28.2759 0 28.7536V40.9384C0 41.4161 0.387222 41.8033 0.864884 41.8033H13.0497C13.5274 41.8033 13.9146 41.4161 13.9146 40.9384V28.7536C13.9146 28.2759 13.5274 27.8887 13.0497 27.8887Z" fill="#0F7272"/>
<path d="M1.69447 1.75093L40.0523 40.1088C40.679 40.7354 40.2347 41.8033 39.3493 41.8033H23.0224C22.7606 41.8033 22.5076 41.6974 22.3193 41.512L0.291236 19.481C0.105904 19.2957 0 19.0427 0 18.778V2.45107C0 1.5656 1.06787 1.12433 1.69447 1.74799V1.75093Z" fill="#FFD00B"/>
<path d="M52.299 26.0061V0.606775H60.0006V5.24008H60.2742C60.7272 3.56032 61.4803 2.31301 62.5335 1.50402C63.5866 0.695028 64.8074 0.289062 66.2018 0.289062C66.5666 0.289062 66.9461 0.312597 67.3491 0.356723C67.7492 0.40085 68.1169 0.468511 68.4494 0.559706V7.46407C68.0699 7.32874 67.5757 7.22578 66.9608 7.15812C66.3489 7.09046 65.7988 7.05516 65.3134 7.05516C64.3426 7.05516 63.4748 7.26991 62.7011 7.70235C61.9274 8.13479 61.3214 8.72903 60.8831 9.48507C60.4448 10.2411 60.2241 11.1295 60.2241 12.1415V26.0002H52.2961L52.299 26.0061Z" fill="white"/>
<path d="M78.0366 26.4592C76.4157 26.4592 74.9742 26.1826 73.7093 25.6296C72.4443 25.0765 71.4559 24.244 70.7439 23.1291C70.032 22.0171 69.6761 20.6256 69.6761 18.9606C69.6761 17.5514 69.9232 16.363 70.4145 15.3951C70.9057 14.4243 71.5912 13.6389 72.4708 13.0329C73.3474 12.4269 74.3565 11.965 75.492 11.6473C76.6275 11.3296 77.8395 11.1178 79.1251 11.0119C80.5636 10.8913 81.7227 10.7589 82.5993 10.6147C83.4789 10.4706 84.1202 10.2558 84.5291 9.96753C84.938 9.67924 85.141 9.27916 85.141 8.76435V8.67315C85.141 8.08185 85.0057 7.58175 84.7321 7.17284C84.4585 6.76393 84.0643 6.45505 83.5495 6.2403C83.0347 6.02849 82.414 5.92259 81.6874 5.92259C80.9608 5.92259 80.3136 6.02849 79.7458 6.2403C79.178 6.45211 78.7132 6.75511 78.3485 7.14931C77.9837 7.54351 77.7277 8.00537 77.5748 8.53489L70.3968 7.60234C70.7292 6.1491 71.3853 4.87237 72.3619 3.77509C73.3386 2.6778 74.6183 1.82174 76.201 1.20691C77.7836 0.592078 79.634 0.286133 81.755 0.286133C83.3289 0.286133 84.8027 0.471465 86.1736 0.842129C87.5445 1.21279 88.7447 1.75702 89.7743 2.47776C90.804 3.19555 91.6071 4.08397 92.1836 5.13419C92.7602 6.18735 93.0456 7.39348 93.0456 8.75846V26.0002H85.5941V22.4348H85.3911C84.938 23.3144 84.3585 24.0469 83.6525 24.6382C82.9494 25.2295 82.1316 25.6796 81.199 25.9885C80.2665 26.2974 79.2104 26.4533 78.0307 26.4533L78.0366 26.4592ZM80.443 21.211C81.3373 21.211 82.1434 21.0286 82.8612 20.6668C83.5789 20.302 84.1526 19.8048 84.5762 19.1665C84.9998 18.5311 85.2116 17.7956 85.2116 16.9631V14.5332C84.9851 14.6538 84.6998 14.7685 84.3585 14.8744C84.0173 14.9803 83.6437 15.0745 83.2348 15.1568C82.8258 15.2392 82.4169 15.3157 82.008 15.3834C81.5991 15.451 81.2049 15.5157 80.8254 15.5775C80.0517 15.6834 79.3928 15.8658 78.8486 16.1217C78.3043 16.3806 77.8866 16.713 77.5983 17.1219C77.31 17.5309 77.1659 18.0221 77.1659 18.5987C77.1659 19.1753 77.31 19.6313 77.5983 20.0196C77.8866 20.405 78.272 20.7021 78.7574 20.9051C79.2428 21.111 79.8017 21.211 80.4371 21.211H80.443Z" fill="white"/>
<path d="M104.524 26.0058L95.3225 0.606445H103.683L107.478 13.0325C107.993 14.6976 108.44 16.4009 108.819 18.1424C109.199 19.8839 109.584 21.7255 109.978 23.6612H108.525C108.905 21.7225 109.278 19.8869 109.649 18.1542C110.02 16.4215 110.455 14.7123 110.955 13.0325L114.679 0.606445H122.949L113.703 26.0028H104.524V26.0058Z" fill="white"/>
<path d="M136.76 26.4827C134.595 26.4827 132.68 26.1767 131.012 25.5619C129.347 24.95 127.991 24.0616 126.947 22.9055C125.902 21.7464 125.229 20.3579 124.926 18.7369L132.286 17.5779C132.604 18.684 133.142 19.5165 133.898 20.0784C134.654 20.6373 135.707 20.9197 137.055 20.9197C138.161 20.9197 139.032 20.7256 139.667 20.3402C140.302 19.9548 140.62 19.443 140.62 18.8076C140.62 18.2163 140.367 17.7426 139.858 17.3867C139.349 17.0307 138.567 16.7483 137.508 16.5365L133.077 15.6746C130.562 15.1892 128.682 14.339 127.432 13.1181C126.182 11.9002 125.558 10.3117 125.558 8.35834C125.558 6.66094 126.017 5.21652 126.932 4.01922C127.847 2.82191 129.144 1.90408 130.815 1.25983C132.489 0.615576 134.46 0.294922 136.734 0.294922C138.855 0.294922 140.697 0.580275 142.265 1.14804C143.833 1.7158 145.097 2.52773 146.059 3.57795C147.021 4.63111 147.645 5.88431 147.933 7.33755L140.938 8.44954C140.711 7.60231 140.244 6.94041 139.54 6.4609C138.837 5.98433 137.946 5.74604 136.872 5.74604C135.919 5.74604 135.113 5.9402 134.454 6.32557C133.795 6.71095 133.466 7.23164 133.466 7.88178C133.466 8.39659 133.669 8.84668 134.078 9.23205C134.486 9.61743 135.237 9.91749 136.325 10.1293L141.188 11.0383C143.7 11.5237 145.577 12.3268 146.81 13.4476C148.045 14.5684 148.66 16.0511 148.66 17.8985C148.66 19.6401 148.148 21.1551 147.127 22.4436C146.106 23.7321 144.7 24.7264 142.915 25.4295C141.126 26.1326 139.076 26.4856 136.758 26.4856L136.76 26.4827Z" fill="white"/>
<path d="M53.0697 30.8306V29.8833H61.1596V30.8306H57.6501V40.9856H56.591V30.8306H53.0668H53.0697Z" fill="white"/>
<path d="M65.4223 41.1648C64.6427 41.1648 63.969 40.9824 63.3983 40.6177C62.8306 40.2529 62.3893 39.7469 62.0804 39.1026C61.7686 38.4554 61.6156 37.7141 61.6156 36.8757C61.6156 36.0373 61.7686 35.2901 62.0745 34.64C62.3805 33.9898 62.807 33.478 63.3571 33.1043C63.9072 32.7307 64.5427 32.5454 65.2693 32.5454C65.7253 32.5454 66.1665 32.6278 66.5872 32.7955C67.0079 32.9631 67.3903 33.2161 67.7257 33.5544C68.061 33.8927 68.3287 34.3252 68.5229 34.8459C68.7171 35.3666 68.8141 35.9814 68.8141 36.6874V37.1258H62.2804V36.255H68.2699L67.8081 36.5815C67.8081 35.9844 67.7051 35.4519 67.5021 34.9812C67.2991 34.5105 67.0079 34.1369 66.6313 33.8633C66.2548 33.5897 65.7988 33.4544 65.2693 33.4544C64.7398 33.4544 64.2838 33.5927 63.8867 33.8722C63.4895 34.1516 63.1836 34.5164 62.9629 34.9753C62.7423 35.4313 62.6305 35.9343 62.6305 36.4815V37.0022C62.6305 37.6523 62.7452 38.223 62.9747 38.7114C63.2042 39.1997 63.5278 39.5792 63.9455 39.8528C64.3662 40.1234 64.8604 40.2588 65.4311 40.2588C65.8194 40.2588 66.1607 40.197 66.4548 40.0734C66.749 39.9499 66.9991 39.7851 67.1991 39.5792C67.3991 39.3733 67.5492 39.1468 67.6492 38.9055L68.6112 39.2115C68.4817 39.5586 68.2758 39.8822 67.9875 40.1793C67.7021 40.4765 67.3432 40.7177 66.9108 40.9001C66.4784 41.0825 65.9812 41.1707 65.4193 41.1707L65.4223 41.1648Z" fill="white"/>
<path d="M74.1388 41.1413C73.4121 41.1413 72.7767 40.9589 72.2237 40.5971C71.6736 40.2352 71.2411 39.7292 70.9263 39.085C70.6145 38.4407 70.4557 37.6965 70.4557 36.8581C70.4557 36.0197 70.6116 35.2518 70.9263 34.6047C71.2382 33.9575 71.6706 33.4515 72.2237 33.0896C72.7738 32.7278 73.4121 32.5454 74.1388 32.5454C74.5624 32.5454 74.9478 32.6072 75.3008 32.7307C75.6538 32.8543 75.9656 33.022 76.2392 33.2279C76.5128 33.4338 76.7393 33.6633 76.9217 33.9133C77.1041 34.1634 77.2365 34.4164 77.3188 34.6694L76.3569 34.9665C76.3127 34.8135 76.2304 34.6488 76.1098 34.4752C75.9921 34.3017 75.8391 34.1369 75.6508 33.9839C75.4655 33.831 75.2449 33.7045 74.9919 33.6074C74.7389 33.5103 74.4535 33.4632 74.1358 33.4632C73.571 33.4632 73.0886 33.6162 72.6944 33.9251C72.3002 34.234 71.9972 34.6429 71.7883 35.1548C71.5794 35.6666 71.4765 36.2344 71.4765 36.861C71.4765 37.4876 71.5794 38.0407 71.7883 38.5525C71.9972 39.0644 72.3002 39.4733 72.6944 39.7792C73.0886 40.0852 73.571 40.2382 74.1358 40.2382C74.4594 40.2382 74.7507 40.1882 75.0066 40.0881C75.2655 39.9881 75.489 39.8616 75.6803 39.7057C75.8715 39.5498 76.0274 39.3792 76.1451 39.1997C76.2657 39.0173 76.3451 38.8496 76.3922 38.6879L77.3453 38.985C77.2659 39.2438 77.1335 39.4998 76.9511 39.7528C76.7687 40.0058 76.5363 40.2382 76.2569 40.45C75.9774 40.6618 75.6597 40.8295 75.3037 40.956C74.9448 41.0825 74.5565 41.1472 74.1329 41.1472L74.1388 41.1413Z" fill="white"/>
<path d="M80.4342 35.7933V40.9856H79.4222V29.8862H80.4342V34.6019H80.2489C80.4783 33.8753 80.8372 33.3516 81.3255 33.031C81.8139 32.7103 82.3758 32.5456 83.0053 32.5456C83.5701 32.5456 84.0673 32.6633 84.4968 32.8986C84.9233 33.134 85.2587 33.4781 85.4999 33.9312C85.7412 34.3842 85.8618 34.9402 85.8618 35.5992V40.9856H84.8498V35.6727C84.8498 34.9932 84.6586 34.4548 84.2761 34.0606C83.8937 33.6664 83.3818 33.4693 82.7405 33.4693C82.3022 33.4693 81.911 33.5635 81.5638 33.7488C81.2167 33.9341 80.9431 34.2048 80.7401 34.5548C80.5401 34.9049 80.4371 35.3197 80.4371 35.7963L80.4342 35.7933Z" fill="white"/>
<path d="M89.4184 35.7931V40.9854H88.4064V32.6572H89.3831L89.389 34.6017H89.233C89.4625 33.8751 89.8214 33.3515 90.3097 33.0308C90.7981 32.7072 91.36 32.5454 91.9895 32.5454C92.5543 32.5454 93.0515 32.6631 93.4751 32.8984C93.8987 33.1338 94.2311 33.478 94.4724 33.931C94.7136 34.384 94.8342 34.94 94.8342 35.599V40.9854H93.8281V35.6725C93.8281 34.993 93.6369 34.4546 93.2545 34.0604C92.872 33.6662 92.3602 33.4691 91.7189 33.4691C91.2805 33.4691 90.8893 33.5633 90.5421 33.7486C90.195 33.9339 89.9214 34.2046 89.7184 34.5546C89.5184 34.9047 89.4154 35.3195 89.4154 35.7961L89.4184 35.7931Z" fill="white"/>
<path d="M100.632 41.1648C99.9058 41.1648 99.2704 40.9824 98.7174 40.6177C98.1672 40.2529 97.7348 39.7469 97.42 39.0968C97.1082 38.4496 96.9493 37.7053 96.9493 36.8669C96.9493 36.0285 97.1053 35.2607 97.42 34.6135C97.7319 33.9663 98.1643 33.4603 98.7174 33.0926C99.2675 32.7278 99.9058 32.5454 100.632 32.5454C101.359 32.5454 101.989 32.7278 102.545 33.0926C103.098 33.4574 103.533 33.9633 103.845 34.6135C104.157 35.2607 104.316 36.0138 104.316 36.8669C104.316 37.72 104.16 38.4496 103.851 39.0968C103.539 39.7439 103.109 40.2529 102.553 40.6177C102 40.9824 101.359 41.1648 100.635 41.1648H100.632ZM100.632 40.247C101.203 40.247 101.689 40.094 102.086 39.7851C102.483 39.4762 102.786 39.0673 102.992 38.5555C103.198 38.0436 103.301 37.4817 103.301 36.8639C103.301 36.2462 103.198 35.6755 102.989 35.1607C102.78 34.6458 102.477 34.234 102.08 33.9251C101.683 33.6162 101.2 33.4603 100.635 33.4603C100.071 33.4603 99.5881 33.6162 99.1939 33.9251C98.7997 34.2369 98.4967 34.6488 98.2878 35.1607C98.079 35.6755 97.976 36.2432 97.976 36.8639C97.976 37.4847 98.079 38.0436 98.2849 38.5555C98.4908 39.0673 98.7909 39.4762 99.1851 39.7851C99.5793 40.094 100.062 40.247 100.635 40.247H100.632Z" fill="white"/>
<path d="M107.44 29.8833V40.9826H106.428V29.8833H107.44Z" fill="white"/>
<path d="M113.238 41.1648C112.511 41.1648 111.876 40.9824 111.323 40.6177C110.773 40.2529 110.34 39.7469 110.026 39.0968C109.714 38.4496 109.555 37.7053 109.555 36.8669C109.555 36.0285 109.711 35.2607 110.026 34.6135C110.337 33.9663 110.77 33.4603 111.323 33.0926C111.873 32.7278 112.511 32.5454 113.238 32.5454C113.965 32.5454 114.594 32.7278 115.15 33.0926C115.703 33.4574 116.139 33.9633 116.45 34.6135C116.762 35.2607 116.921 36.0138 116.921 36.8669C116.921 37.72 116.765 38.4496 116.456 39.0968C116.144 39.7439 115.715 40.2529 115.159 40.6177C114.606 40.9824 113.965 41.1648 113.241 41.1648H113.238ZM113.238 40.247C113.809 40.247 114.294 40.094 114.691 39.7851C115.088 39.4762 115.391 39.0673 115.597 38.5555C115.803 38.0436 115.906 37.4817 115.906 36.8639C115.906 36.2462 115.803 35.6755 115.594 35.1607C115.385 34.6458 115.082 34.234 114.685 33.9251C114.288 33.6162 113.806 33.4603 113.241 33.4603C112.676 33.4603 112.194 33.6162 111.799 33.9251C111.405 34.2369 111.102 34.6488 110.893 35.1607C110.685 35.6755 110.582 36.2432 110.582 36.8639C110.582 37.4847 110.685 38.0436 110.89 38.5555C111.096 39.0673 111.396 39.4762 111.791 39.7851C112.185 40.094 112.667 40.247 113.241 40.247H113.238Z" fill="white"/>
<path d="M122.222 44.2777C121.654 44.2777 121.157 44.2042 120.728 44.0571C120.298 43.91 119.936 43.71 119.645 43.457C119.351 43.204 119.124 42.9127 118.96 42.5862L119.795 42.0802C119.913 42.295 120.075 42.5009 120.275 42.7009C120.475 42.9039 120.737 43.0657 121.054 43.1922C121.372 43.3187 121.763 43.3834 122.225 43.3834C122.961 43.3834 123.552 43.201 123.999 42.8363C124.446 42.4715 124.67 41.9067 124.67 41.1418V39.2708H124.573C124.464 39.5297 124.302 39.7827 124.093 40.0357C123.881 40.2857 123.608 40.4917 123.269 40.6535C122.931 40.8153 122.513 40.8947 122.019 40.8947C121.357 40.8947 120.772 40.7299 120.257 40.4034C119.742 40.0769 119.339 39.6062 119.045 38.9943C118.751 38.3824 118.607 37.6528 118.607 36.8027C118.607 35.9525 118.751 35.2082 119.039 34.5728C119.327 33.9344 119.73 33.4373 120.245 33.0784C120.76 32.7195 121.36 32.543 122.04 32.543C122.546 32.543 122.969 32.6312 123.308 32.8107C123.646 32.9901 123.917 33.2108 124.123 33.4785C124.328 33.7432 124.487 34.005 124.596 34.258H124.699V32.6577H125.682V41.1889C125.682 41.8949 125.532 42.4744 125.235 42.9333C124.937 43.3893 124.526 43.7306 124.005 43.9512C123.484 44.1718 122.89 44.2836 122.225 44.2836L122.222 44.2777ZM122.163 39.9886C122.696 39.9886 123.149 39.8592 123.522 39.6032C123.896 39.3473 124.184 38.9796 124.381 38.5001C124.579 38.0206 124.679 37.4499 124.679 36.7821C124.679 36.1143 124.581 35.5642 124.384 35.0641C124.187 34.564 123.905 34.1727 123.531 33.8874C123.158 33.602 122.702 33.4579 122.16 33.4579C121.619 33.4579 121.151 33.605 120.775 33.9021C120.398 34.1963 120.11 34.5963 119.916 35.0964C119.719 35.5995 119.622 36.1584 119.622 36.7791C119.622 37.3998 119.722 37.9647 119.919 38.4471C120.119 38.9296 120.404 39.3061 120.784 39.5768C121.16 39.8474 121.622 39.9827 122.163 39.9827V39.9886Z" fill="white"/>
<path d="M128.741 31.1133C128.541 31.1133 128.37 31.0426 128.223 30.9044C128.076 30.7661 128.003 30.5984 128.003 30.4043C128.003 30.2101 128.076 30.0395 128.223 29.9012C128.37 29.763 128.541 29.6953 128.741 29.6953C128.941 29.6953 129.118 29.763 129.262 29.9012C129.406 30.0366 129.477 30.2042 129.477 30.4043C129.477 30.6043 129.406 30.7661 129.262 30.9044C129.118 31.0426 128.944 31.1133 128.741 31.1133ZM128.226 40.9859V32.6577H129.238V40.9859H128.226Z" fill="white"/>
<path d="M135.163 41.1648C134.384 41.1648 133.71 40.9824 133.139 40.6177C132.571 40.2529 132.13 39.7469 131.821 39.1026C131.509 38.4554 131.356 37.7141 131.356 36.8757C131.356 36.0373 131.509 35.2901 131.815 34.64C132.121 33.9898 132.548 33.478 133.098 33.1043C133.648 32.7307 134.283 32.5454 135.01 32.5454C135.466 32.5454 135.907 32.6278 136.328 32.7955C136.749 32.9631 137.131 33.2161 137.466 33.5544C137.802 33.8927 138.07 34.3252 138.264 34.8459C138.458 35.3666 138.555 35.9814 138.555 36.6874V37.1258H132.021V36.255H138.011L137.549 36.5815C137.549 35.9844 137.446 35.4519 137.243 34.9812C137.04 34.5105 136.749 34.1369 136.372 33.8633C135.996 33.5897 135.54 33.4544 135.01 33.4544C134.481 33.4544 134.025 33.5927 133.627 33.8722C133.23 34.1516 132.924 34.5164 132.704 34.9753C132.483 35.4313 132.371 35.9343 132.371 36.4815V37.0022C132.371 37.6523 132.486 38.223 132.716 38.7114C132.945 39.1997 133.269 39.5792 133.686 39.8528C134.107 40.1234 134.601 40.2588 135.172 40.2588C135.56 40.2588 135.901 40.197 136.196 40.0734C136.49 39.9499 136.74 39.7851 136.94 39.5792C137.14 39.3733 137.29 39.1468 137.39 38.9055L138.352 39.2115C138.223 39.5586 138.017 39.8822 137.728 40.1793C137.443 40.4765 137.084 40.7177 136.652 40.9001C136.219 41.0825 135.722 41.1707 135.16 41.1707L135.163 41.1648Z" fill="white"/>
<path d="M143.282 41.1648C142.735 41.1648 142.253 41.0825 141.829 40.9148C141.406 40.7471 141.058 40.5059 140.785 40.1852C140.511 39.8646 140.326 39.4704 140.226 39.0056L141.194 38.7732C141.314 39.2762 141.55 39.6469 141.906 39.894C142.262 40.1411 142.715 40.2617 143.265 40.2617C143.894 40.2617 144.4 40.1205 144.78 39.8381C145.159 39.5557 145.35 39.2027 145.35 38.779C145.35 38.4407 145.239 38.1613 145.012 37.9377C144.786 37.7141 144.447 37.5494 143.994 37.4376L142.638 37.1111C141.923 36.9375 141.388 36.6639 141.032 36.2962C140.676 35.9255 140.499 35.4607 140.499 34.8988C140.499 34.4311 140.626 34.0222 140.876 33.6692C141.126 33.3162 141.473 33.0396 141.912 32.8425C142.35 32.6454 142.85 32.5454 143.412 32.5454C143.938 32.5454 144.391 32.6248 144.768 32.7866C145.145 32.9484 145.456 33.175 145.703 33.4691C145.951 33.7633 146.133 34.1104 146.259 34.5105L145.336 34.7488C145.206 34.3664 144.992 34.0487 144.692 33.7986C144.391 33.5486 143.968 33.4221 143.421 33.4221C142.873 33.4221 142.415 33.5544 142.059 33.8163C141.7 34.0781 141.523 34.4193 141.523 34.8371C141.523 35.1901 141.644 35.4784 141.885 35.7019C142.126 35.9255 142.503 36.0991 143.015 36.2226L144.288 36.5286C144.995 36.7021 145.521 36.9728 145.871 37.3405C146.221 37.7082 146.398 38.1672 146.398 38.7202C146.398 39.1968 146.265 39.6204 146.004 39.9881C145.742 40.3558 145.374 40.6441 144.906 40.853C144.436 41.0619 143.897 41.1648 143.285 41.1648H143.282Z" fill="white"/>
</svg>
