<svg width="210" height="50" viewBox="0 0 210 50" fill="none" xmlns="http://www.w3.org/2000/svg">
<path d="M48.3818 0.428177H17.1419C16.7212 0.428177 16.3801 0.769275 16.3801 1.19004V16.0464C16.3801 16.4671 16.7212 16.8082 17.1419 16.8082H48.3818C48.8025 16.8082 49.1436 16.4671 49.1436 16.0464V1.19004C49.1436 0.769275 48.8025 0.428177 48.3818 0.428177Z" fill="#11C94E"/>
<path d="M48.2536 0.428177H33.6536C33.162 0.428177 32.7636 0.826641 32.7636 1.31817V32.3018C32.7636 32.7933 33.162 33.1918 33.6536 33.1918H48.2536C48.7452 33.1918 49.1436 32.7933 49.1436 32.3018V1.31817C49.1436 0.826641 48.7452 0.428177 48.2536 0.428177Z" fill="#11C94E"/>
<path d="M15.3619 33.1918H1.01813C0.455831 33.1918 0 33.6476 0 34.2099V48.5537C0 49.116 0.455831 49.5718 1.01813 49.5718H15.3619C15.9242 49.5718 16.3801 49.116 16.3801 48.5537V34.2099C16.3801 33.6476 15.9242 33.1918 15.3619 33.1918Z" fill="#0F7272"/>
<path d="M1.9947 2.42287L47.1489 47.5771C47.8866 48.3147 47.3637 49.5718 46.3213 49.5718H27.1016C26.7933 49.5718 26.4955 49.4471 26.2739 49.229L0.342838 23.2945C0.124669 23.0763 0 22.7785 0 22.4668V3.24706C0 2.2047 1.25707 1.68525 1.9947 2.4194V2.42287Z" fill="#FFD00B"/>
<path d="M61.5653 29.1718V1.02216H70.1008V6.15716H70.404C70.9061 4.29552 71.7407 2.91315 72.9079 2.01656C74.0751 1.11997 75.4282 0.670044 76.9736 0.670044C77.3778 0.670044 77.7984 0.696127 78.2451 0.745031C78.6885 0.793936 79.096 0.868924 79.4644 0.969994V8.62197C79.0439 8.47199 78.4961 8.35788 77.8147 8.28289C77.1366 8.20791 76.5269 8.16878 75.9889 8.16878C74.913 8.16878 73.9512 8.40679 73.0938 8.88605C72.2363 9.36532 71.5647 10.0239 71.0789 10.8618C70.5931 11.6997 70.3486 12.6843 70.3486 13.8059V29.1653H61.562L61.5653 29.1718Z" fill="#062A2B"/>
<path d="M90.0898 29.6739C88.2934 29.6739 86.6958 29.3674 85.2939 28.7545C83.892 28.1415 82.7965 27.2189 82.0075 25.9832C81.2185 24.7508 80.824 23.2087 80.824 21.3633C80.824 19.8016 81.0979 18.4845 81.6423 17.4118C82.1868 16.3359 82.9465 15.4654 83.9213 14.7938C84.8929 14.1222 86.0112 13.6103 87.2696 13.2582C88.5281 12.9061 89.8714 12.6713 91.2961 12.5539C92.8904 12.4203 94.175 12.2736 95.1466 12.1138C96.1214 11.954 96.8322 11.716 97.2854 11.3965C97.7385 11.077 97.9635 10.6336 97.9635 10.0631V9.96199C97.9635 9.30666 97.8135 8.75241 97.5103 8.29922C97.2071 7.84604 96.7702 7.5037 96.1997 7.2657C95.6291 7.03096 94.9412 6.91358 94.1359 6.91358C93.3306 6.91358 92.6133 7.03096 91.9841 7.2657C91.3548 7.50044 90.8397 7.83626 90.4354 8.27314C90.0311 8.71002 89.7475 9.22189 89.578 9.80875L81.6228 8.77523C81.9912 7.16463 82.7182 5.74965 83.8007 4.53355C84.8831 3.31745 86.3013 2.3687 88.0554 1.68729C89.8094 1.00588 91.8602 0.666809 94.2109 0.666809C95.9551 0.666809 97.5886 0.872209 99.1079 1.28301C100.627 1.69381 101.957 2.29697 103.099 3.09575C104.24 3.89127 105.13 4.87588 105.769 6.03982C106.408 7.20701 106.724 8.54375 106.724 10.0565V29.1653H98.4656V25.2138H98.2406C97.7385 26.1886 97.0963 27.0004 96.3138 27.6557C95.5346 28.3111 94.6282 28.8099 93.5947 29.1522C92.5611 29.4946 91.3907 29.6674 90.0833 29.6674L90.0898 29.6739ZM92.7568 23.8575C93.7479 23.8575 94.6412 23.6553 95.4368 23.2543C96.2323 22.85 96.868 22.299 97.3375 21.5916C97.807 20.8873 98.0417 20.0722 98.0417 19.1496V16.4565C97.7907 16.5902 97.4745 16.7174 97.0963 16.8347C96.7181 16.9521 96.304 17.0564 95.8508 17.1477C95.3976 17.239 94.9444 17.3238 94.4913 17.3988C94.0381 17.4738 93.6012 17.5455 93.1806 17.614C92.3231 17.7313 91.5928 17.9335 90.9897 18.2171C90.3865 18.504 89.9235 18.8724 89.604 19.3256C89.2845 19.7788 89.1248 20.3233 89.1248 20.9623C89.1248 21.6013 89.2845 22.1067 89.604 22.537C89.9235 22.9641 90.3507 23.2934 90.8886 23.5184C91.4266 23.7466 92.046 23.8575 92.7502 23.8575H92.7568Z" fill="#062A2B"/>
<path d="M119.446 29.1718L109.247 1.02219H118.513L122.719 14.7938C123.29 16.6391 123.785 18.5269 124.206 20.457C124.626 22.3871 125.054 24.428 125.49 26.5733H123.88C124.3 24.4248 124.714 22.3903 125.125 20.47C125.536 18.5497 126.019 16.6554 126.573 14.7938L130.7 1.02219H139.865L129.618 29.1685H119.446V29.1718Z" fill="#062A2B"/>
<path d="M155.172 29.7C152.773 29.7 150.65 29.3609 148.802 28.6795C146.956 28.0013 145.453 27.0167 144.296 25.7354C143.139 24.4509 142.392 22.912 142.056 21.1155L150.213 19.831C150.566 21.0569 151.162 21.9795 152 22.6023C152.838 23.2217 154.005 23.5347 155.498 23.5347C156.724 23.5347 157.689 23.3195 158.394 22.8924C159.098 22.4653 159.45 21.898 159.45 21.1938C159.45 20.5385 159.17 20.0136 158.605 19.6191C158.041 19.2246 157.174 18.9116 156 18.6768L151.09 17.7216C148.303 17.1836 146.22 16.2414 144.834 14.8883C143.448 13.5386 142.757 11.778 142.757 9.61313C142.757 7.73193 143.266 6.13111 144.28 4.80416C145.294 3.47721 146.731 2.45999 148.583 1.74598C150.438 1.03197 152.623 0.67659 155.143 0.67659C157.494 0.67659 159.535 0.992841 161.272 1.62208C163.01 2.25133 164.412 3.15117 165.478 4.31511C166.544 5.4823 167.236 6.8712 167.555 8.4818L159.802 9.7142C159.551 8.77523 159.033 8.04166 158.253 7.51022C157.474 6.98205 156.486 6.71797 155.296 6.71797C154.24 6.71797 153.347 6.93315 152.616 7.36025C151.886 7.78735 151.521 8.36443 151.521 9.08496C151.521 9.65552 151.746 10.1543 152.199 10.5814C152.652 11.0085 153.484 11.3411 154.69 11.5758L160.079 12.5833C162.863 13.1212 164.944 14.0113 166.31 15.2535C167.679 16.4957 168.36 18.1389 168.36 20.1864C168.36 22.1165 167.793 23.7955 166.662 25.2236C165.53 26.6516 163.972 27.7536 161.993 28.5328C160.011 29.312 157.738 29.7032 155.169 29.7032L155.172 29.7Z" fill="#062A2B"/>
<path d="M62.4195 34.5187V33.4689H71.3854V34.5187H67.4958V45.7734H66.3221V34.5187H62.4162H62.4195Z" fill="#062A2B"/>
<path d="M76.1096 45.9723C75.2456 45.9723 74.499 45.7701 73.8665 45.3658C73.2372 44.9616 72.7482 44.4008 72.4058 43.6868C72.0602 42.9695 71.8907 42.1479 71.8907 41.2187C71.8907 40.2895 72.0602 39.4614 72.3993 38.7409C72.7384 38.0203 73.2111 37.453 73.8208 37.039C74.4305 36.6249 75.1347 36.4195 75.94 36.4195C76.4454 36.4195 76.9344 36.5108 77.4007 36.6966C77.8669 36.8825 78.2907 37.1629 78.6624 37.5378C79.0341 37.9127 79.3308 38.392 79.5459 38.9691C79.7611 39.5462 79.8687 40.2276 79.8687 41.01V41.4958H72.6275V40.5308H79.2656L78.7537 40.8927C78.7537 40.2308 78.6396 39.6407 78.4146 39.1191C78.1897 38.5974 77.8669 38.1833 77.4496 37.8801C77.0322 37.5769 76.5269 37.4269 75.94 37.4269C75.3532 37.4269 74.8478 37.5802 74.4077 37.8899C73.9675 38.1996 73.6285 38.6039 73.3839 39.1125C73.1394 39.6179 73.0155 40.1754 73.0155 40.7818V41.3589C73.0155 42.0794 73.1427 42.7119 73.397 43.2531C73.6513 43.7944 74.0099 44.2149 74.4729 44.5181C74.9391 44.8181 75.4868 44.9681 76.1193 44.9681C76.5497 44.9681 76.9279 44.8996 77.2539 44.7627C77.58 44.6257 77.8571 44.4432 78.0788 44.2149C78.3005 43.9867 78.4668 43.7357 78.5776 43.4683L79.6438 43.8074C79.5003 44.1921 79.2721 44.5508 78.9526 44.88C78.6363 45.2093 78.2386 45.4767 77.7593 45.6788C77.28 45.881 76.729 45.9788 76.1063 45.9788L76.1096 45.9723Z" fill="#062A2B"/>
<path d="M85.7699 45.9462C84.9646 45.9462 84.2604 45.744 83.6474 45.343C83.0378 44.942 82.5585 44.3812 82.2096 43.6672C81.864 42.9532 81.688 42.1283 81.688 41.1991C81.688 40.2699 81.8608 39.419 82.2096 38.7017C82.5552 37.9845 83.0345 37.4237 83.6474 37.0227C84.2571 36.6216 84.9646 36.4195 85.7699 36.4195C86.2394 36.4195 86.6665 36.488 87.0577 36.6249C87.449 36.7618 87.7946 36.9477 88.0978 37.1759C88.401 37.4041 88.652 37.6584 88.8542 37.9356C89.0563 38.2127 89.203 38.4931 89.2943 38.7735L88.2282 39.1028C88.1793 38.9332 88.088 38.7506 87.9543 38.5583C87.8239 38.3659 87.6544 38.1833 87.4457 38.0138C87.2403 37.8443 86.9958 37.7041 86.7154 37.5965C86.435 37.4889 86.1188 37.4367 85.7666 37.4367C85.1407 37.4367 84.606 37.6063 84.1691 37.9486C83.7322 38.2909 83.3964 38.7441 83.1649 39.3114C82.9334 39.8787 82.8193 40.508 82.8193 41.2024C82.8193 41.8968 82.9334 42.5098 83.1649 43.0771C83.3964 43.6444 83.7322 44.0976 84.1691 44.4366C84.606 44.7757 85.1407 44.9452 85.7666 44.9452C86.1253 44.9452 86.4481 44.8898 86.7317 44.779C87.0186 44.6681 87.2664 44.5279 87.4783 44.3551C87.6902 44.1823 87.863 43.9932 87.9934 43.7944C88.1271 43.5922 88.2151 43.4064 88.2673 43.2271L89.3237 43.5564C89.2356 43.8433 89.0889 44.1269 88.8868 44.4073C88.6846 44.6877 88.4271 44.9452 88.1173 45.18C87.8076 45.4147 87.4555 45.6006 87.061 45.7408C86.6632 45.881 86.2329 45.9527 85.7634 45.9527L85.7699 45.9462Z" fill="#062A2B"/>
<path d="M92.747 40.0189V45.7734H91.6254V33.4722H92.747V38.6985H92.5416C92.7959 37.8932 93.1937 37.3128 93.7349 36.9575C94.2761 36.6021 94.8988 36.4195 95.5965 36.4195C96.2225 36.4195 96.7735 36.5499 97.2495 36.8108C97.7222 37.0716 98.0939 37.453 98.3613 37.9551C98.6286 38.4572 98.7623 39.0734 98.7623 39.8037V45.7734H97.6407V39.8852C97.6407 39.1321 97.4288 38.5355 97.005 38.0986C96.5811 37.6617 96.0138 37.4433 95.3031 37.4433C94.8173 37.4433 94.3837 37.5476 93.999 37.753C93.6142 37.9584 93.311 38.2583 93.0861 38.6463C92.8644 39.0343 92.7502 39.494 92.7502 40.0222L92.747 40.0189Z" fill="#062A2B"/>
<path d="M102.704 40.0189V45.7734H101.582V36.5434H102.665L102.671 38.6985H102.499C102.753 37.8932 103.151 37.3128 103.692 36.9575C104.233 36.5988 104.856 36.4195 105.554 36.4195C106.18 36.4195 106.731 36.5499 107.2 36.8107C107.669 37.0716 108.038 37.453 108.305 37.9551C108.573 38.4572 108.706 39.0734 108.706 39.8037V45.7734H107.591V39.8852C107.591 39.1321 107.379 38.5355 106.955 38.0986C106.532 37.6617 105.964 37.4433 105.254 37.4433C104.768 37.4433 104.334 37.5476 103.949 37.753C103.565 37.9584 103.262 38.2583 103.037 38.6463C102.815 39.0343 102.701 39.494 102.701 40.0222L102.704 40.0189Z" fill="#062A2B"/>
<path d="M115.132 45.9723C114.327 45.9723 113.623 45.7701 113.01 45.3658C112.4 44.9616 111.921 44.4008 111.572 43.6802C111.226 42.963 111.05 42.1381 111.05 41.2089C111.05 40.2797 111.223 39.4288 111.572 38.7115C111.918 37.9942 112.397 37.4335 113.01 37.0259C113.62 36.6216 114.327 36.4195 115.132 36.4195C115.938 36.4195 116.635 36.6216 117.252 37.0259C117.865 37.4302 118.347 37.991 118.693 38.7115C119.038 39.4288 119.214 40.2634 119.214 41.2089C119.214 42.1544 119.041 42.963 118.699 43.6802C118.354 44.3975 117.878 44.9616 117.261 45.3658C116.648 45.7701 115.938 45.9723 115.136 45.9723H115.132ZM115.132 44.955C115.765 44.955 116.303 44.7855 116.743 44.4432C117.183 44.1008 117.519 43.6476 117.747 43.0803C117.975 42.513 118.089 41.8903 118.089 41.2057C118.089 40.521 117.975 39.8885 117.744 39.3179C117.512 38.7474 117.177 38.2909 116.736 37.9486C116.296 37.6063 115.762 37.4335 115.136 37.4335C114.51 37.4335 113.975 37.6063 113.538 37.9486C113.101 38.2942 112.765 38.7506 112.534 39.3179C112.302 39.8885 112.188 40.5177 112.188 41.2057C112.188 41.8936 112.302 42.513 112.531 43.0803C112.759 43.6476 113.091 44.1008 113.528 44.4432C113.965 44.7855 114.5 44.955 115.136 44.955H115.132Z" fill="#062A2B"/>
<path d="M122.677 33.4689V45.7701H121.555V33.4689H122.677Z" fill="#062A2B"/>
<path d="M129.103 45.9723C128.298 45.9723 127.593 45.7701 126.98 45.3658C126.371 44.9616 125.891 44.4008 125.543 43.6802C125.197 42.963 125.021 42.1381 125.021 41.2089C125.021 40.2797 125.194 39.4288 125.543 38.7115C125.888 37.9942 126.367 37.4335 126.98 37.0259C127.59 36.6216 128.298 36.4195 129.103 36.4195C129.908 36.4195 130.606 36.6216 131.222 37.0259C131.835 37.4302 132.318 37.991 132.663 38.7115C133.009 39.4288 133.185 40.2634 133.185 41.2089C133.185 42.1544 133.012 42.963 132.67 43.6802C132.324 44.3975 131.848 44.9616 131.232 45.3658C130.619 45.7701 129.908 45.9723 129.106 45.9723H129.103ZM129.103 44.955C129.735 44.955 130.273 44.7855 130.713 44.4432C131.154 44.1008 131.489 43.6476 131.718 43.0803C131.946 42.513 132.06 41.8903 132.06 41.2057C132.06 40.521 131.946 39.8885 131.714 39.3179C131.483 38.7474 131.147 38.2909 130.707 37.9486C130.267 37.6063 129.732 37.4335 129.106 37.4335C128.48 37.4335 127.945 37.6063 127.509 37.9486C127.072 38.2942 126.736 38.7506 126.504 39.3179C126.273 39.8885 126.159 40.5177 126.159 41.2057C126.159 41.8936 126.273 42.513 126.501 43.0803C126.729 43.6476 127.062 44.1008 127.499 44.4432C127.936 44.7855 128.47 44.955 129.106 44.955H129.103Z" fill="#062A2B"/>
<path d="M139.06 49.4217C138.431 49.4217 137.88 49.3402 137.404 49.1771C136.928 49.0141 136.527 48.7924 136.204 48.512C135.878 48.2316 135.627 47.9089 135.444 47.547L136.37 46.9862C136.501 47.2242 136.68 47.4524 136.902 47.6741C137.123 47.8991 137.413 48.0784 137.766 48.2186C138.118 48.3588 138.551 48.4305 139.063 48.4305C139.878 48.4305 140.534 48.2284 141.029 47.8241C141.525 47.4198 141.772 46.7938 141.772 45.9462V43.8726H141.665C141.544 44.1595 141.365 44.4399 141.133 44.7203C140.899 44.9974 140.595 45.2256 140.221 45.405C139.846 45.5843 139.383 45.6723 138.835 45.6723C138.101 45.6723 137.453 45.4897 136.882 45.1278C136.311 44.7659 135.865 44.2443 135.539 43.5661C135.213 42.888 135.053 42.0794 135.053 41.1372C135.053 40.195 135.213 39.3701 135.532 38.6659C135.852 37.9584 136.298 37.4074 136.869 37.0096C137.439 36.6119 138.105 36.4162 138.858 36.4162C139.418 36.4162 139.888 36.5141 140.263 36.7129C140.638 36.9118 140.938 37.1563 141.166 37.453C141.394 37.7465 141.57 38.0366 141.691 38.317H141.805V36.5434H142.894V45.9983C142.894 46.7808 142.728 47.4231 142.398 47.9317C142.069 48.437 141.613 48.8152 141.036 49.0598C140.459 49.3043 139.8 49.4282 139.063 49.4282L139.06 49.4217ZM138.995 44.6681C139.585 44.6681 140.087 44.5247 140.501 44.241C140.915 43.9574 141.234 43.5498 141.453 43.0184C141.671 42.487 141.782 41.8545 141.782 41.1144C141.782 40.3743 141.675 39.7646 141.456 39.2103C141.238 38.6561 140.925 38.2225 140.511 37.9062C140.097 37.59 139.591 37.4302 138.991 37.4302C138.391 37.4302 137.873 37.5932 137.456 37.9225C137.038 38.2485 136.719 38.6919 136.504 39.2462C136.285 39.8037 136.178 40.4232 136.178 41.1111C136.178 41.799 136.289 42.425 136.507 42.9597C136.729 43.4944 137.045 43.9117 137.466 44.2117C137.883 44.5116 138.395 44.6616 138.995 44.6616V44.6681Z" fill="#062A2B"/>
<path d="M146.285 34.8317C146.063 34.8317 145.874 34.7535 145.711 34.6003C145.548 34.447 145.466 34.2612 145.466 34.046C145.466 33.8308 145.548 33.6417 145.711 33.4885C145.874 33.3353 146.063 33.2603 146.285 33.2603C146.506 33.2603 146.702 33.3353 146.862 33.4885C147.022 33.6385 147.1 33.8243 147.1 34.046C147.1 34.2677 147.022 34.447 146.862 34.6003C146.702 34.7535 146.51 34.8317 146.285 34.8317ZM145.714 45.7734V36.5434H146.836V45.7734H145.714Z" fill="#062A2B"/>
<path d="M153.402 45.9723C152.538 45.9723 151.791 45.7701 151.159 45.3658C150.53 44.9616 150.041 44.4008 149.698 43.6868C149.353 42.9695 149.183 42.1479 149.183 41.2187C149.183 40.2895 149.353 39.4614 149.692 38.7409C150.031 38.0203 150.504 37.453 151.113 37.039C151.723 36.6249 152.427 36.4195 153.232 36.4195C153.738 36.4195 154.227 36.5108 154.693 36.6966C155.159 36.8825 155.583 37.1629 155.955 37.5378C156.327 37.9127 156.623 38.392 156.838 38.9691C157.054 39.5462 157.161 40.2276 157.161 41.01V41.4958H149.92V40.5308H156.558L156.046 40.8927C156.046 40.2308 155.932 39.6407 155.707 39.1191C155.482 38.5974 155.159 38.1833 154.742 37.8801C154.325 37.5769 153.819 37.4269 153.232 37.4269C152.646 37.4269 152.14 37.5802 151.7 37.8899C151.26 38.1996 150.921 38.6039 150.676 39.1125C150.432 39.6179 150.308 40.1754 150.308 40.7818V41.3589C150.308 42.0794 150.435 42.7119 150.689 43.2531C150.944 43.7944 151.302 44.2149 151.765 44.5181C152.232 44.8181 152.779 44.9681 153.412 44.9681C153.842 44.9681 154.22 44.8996 154.546 44.7627C154.872 44.6257 155.15 44.4432 155.371 44.2149C155.593 43.9867 155.759 43.7357 155.87 43.4683L156.936 43.8074C156.793 44.1921 156.565 44.5508 156.245 44.88C155.929 45.2093 155.531 45.4767 155.052 45.6788C154.572 45.881 154.021 45.9788 153.399 45.9788L153.402 45.9723Z" fill="#062A2B"/>
<path d="M162.4 45.9723C161.794 45.9723 161.259 45.881 160.79 45.6951C160.32 45.5093 159.936 45.2419 159.632 44.8866C159.329 44.5312 159.124 44.0943 159.013 43.5792L160.086 43.3216C160.219 43.8791 160.48 44.2899 160.875 44.5638C161.269 44.8377 161.771 44.9713 162.381 44.9713C163.079 44.9713 163.639 44.8148 164.06 44.5018C164.481 44.1889 164.693 43.7976 164.693 43.3281C164.693 42.9532 164.569 42.6435 164.318 42.3957C164.067 42.1479 163.692 41.9653 163.19 41.8414L161.686 41.4795C160.894 41.2872 160.301 40.984 159.906 40.5764C159.512 40.1656 159.316 39.6505 159.316 39.0278C159.316 38.5094 159.456 38.0562 159.734 37.665C160.011 37.2737 160.395 36.9672 160.881 36.7488C161.367 36.5304 161.921 36.4195 162.544 36.4195C163.128 36.4195 163.63 36.5075 164.047 36.6869C164.464 36.8662 164.81 37.1172 165.084 37.4433C165.358 37.7693 165.56 38.154 165.7 38.5974L164.676 38.8615C164.533 38.4376 164.295 38.0855 163.962 37.8084C163.63 37.5313 163.16 37.3911 162.554 37.3911C161.947 37.3911 161.439 37.5378 161.044 37.828C160.646 38.1181 160.451 38.4963 160.451 38.9593C160.451 39.3505 160.585 39.67 160.852 39.9178C161.119 40.1656 161.537 40.358 162.104 40.4949L163.516 40.834C164.298 41.0263 164.882 41.3263 165.27 41.7338C165.658 42.1414 165.853 42.65 165.853 43.2629C165.853 43.7911 165.706 44.2606 165.416 44.6681C165.126 45.0757 164.719 45.3952 164.2 45.6267C163.679 45.8581 163.082 45.9723 162.404 45.9723H162.4Z" fill="#062A2B"/>
</svg>
