<svg width="279" height="279" viewBox="0 0 279 279" fill="none" xmlns="http://www.w3.org/2000/svg">
<g opacity="0.2">
<path fill-rule="evenodd" clip-rule="evenodd" d="M87.9408 -0.00012207H5.05273C5.04691 -0.00012207 5.04108 -0.000112187 5.03525 -9.24364e-05H4.3253C1.93652 -9.24364e-05 3.05176e-05 1.9364 3.05176e-05 4.32518V5.05259V88.6681V180.954C3.05176e-05 183.744 2.26221 186.006 5.05273 186.006H87.9408C90.7313 186.006 92.9935 183.744 92.9935 180.954V92.9934H181.681C184.07 92.9934 186.007 91.0569 186.007 88.6681V4.32518C186.007 1.9364 184.07 -9.24364e-05 181.681 -9.24364e-05H87.9583C87.9524 -0.000112187 87.9466 -0.00012207 87.9408 -0.00012207Z" fill="#093233"/>
<path d="M191.787 186.006H273.22C276.412 186.006 279 188.594 279 191.786V273.22C279 276.412 276.412 279 273.22 279H191.787C188.594 279 186.007 276.412 186.007 273.22V191.786C186.007 188.594 188.594 186.006 191.787 186.006Z" fill="#093233"/>
<path d="M267.676 11.3243L11.3244 267.676C7.13672 271.863 10.1054 279 16.0232 279H125.138C126.888 279 128.579 278.292 129.837 277.054L277.054 129.817C278.292 128.579 279 126.888 279 125.118V16.0035C279 10.0857 271.863 7.13668 267.676 11.3047V11.3243Z" fill="#093233"/>
</g>
</svg>
