<svg width="553" height="657" viewBox="0 0 553 657" fill="none" xmlns="http://www.w3.org/2000/svg">
<mask id="path-1-inside-1_32_187" fill="white">
<path fill-rule="evenodd" clipRule="evenodd" d="M541.101 0H542.814C548.44 0 553 4.56013 553 10.1853V208.799C553 208.814 553 208.828 553 208.843V426.117C553 432.688 547.673 438.015 541.101 438.015H345.913C339.342 438.015 334.015 432.688 334.015 426.117V218.985H125.17C119.545 218.985 114.984 214.424 114.984 208.799V10.1853C114.984 4.56013 119.545 0 125.17 0H345.913H541.101Z"/>
</mask>
<path d="M553 208.843L552 208.839V208.843H553ZM334.015 218.985H335.015V217.985H334.015V218.985ZM542.814 -1H541.101V1H542.814V-1ZM554 10.1853C554 4.00784 548.992 -1 542.814 -1V1C547.887 1 552 5.11241 552 10.1853H554ZM554 208.799V10.1853H552V208.799H554ZM554 208.847C554 208.831 554 208.815 554 208.799H552C552 208.812 552 208.826 552 208.839L554 208.847ZM554 426.117V208.843H552V426.117H554ZM541.101 439.015C548.225 439.015 554 433.241 554 426.117H552C552 432.136 547.12 437.015 541.101 437.015V439.015ZM345.913 439.015H541.101V437.015H345.913V439.015ZM333.015 426.117C333.015 433.241 338.79 439.015 345.913 439.015V437.015C339.895 437.015 335.015 432.136 335.015 426.117H333.015ZM333.015 218.985V426.117H335.015V218.985H333.015ZM125.17 219.985H334.015V217.985H125.17V219.985ZM113.984 208.799C113.984 214.977 118.992 219.985 125.17 219.985V217.985C120.097 217.985 115.984 213.872 115.984 208.799H113.984ZM113.984 10.1853V208.799H115.984V10.1853H113.984ZM125.17 -1C118.992 -1 113.984 4.00784 113.984 10.1853H115.984C115.984 5.11241 120.097 1 125.17 1V-1ZM345.913 -1H125.17V1H345.913V-1ZM541.101 -1H345.913V1H541.101V-1Z" fill="#FFD00B" mask="url(#path-1-inside-1_32_187)"/>
<path d="M-90.3887 438.515H101.373C108.614 438.515 114.485 444.385 114.485 451.626V643.388C114.485 650.63 108.614 656.5 101.373 656.5H-90.3887C-97.6299 656.5 -103.5 650.63 -103.5 643.388V451.626C-103.5 444.385 -97.6299 438.515 -90.3887 438.515Z" stroke="#FFD00B"/>
<path d="M-77.833 26.8305V26.8743L-77.6865 27.0207L525.979 630.686C535.524 640.231 528.759 656.5 515.268 656.5H258.32C254.334 656.5 250.478 654.887 247.606 652.06L-99.063 305.345L-99.4166 305.699L-99.063 305.345C-101.886 302.522 -103.5 298.667 -103.5 294.634V37.6858C-103.5 24.2664 -87.3993 17.5418 -77.833 26.8305Z" stroke="#FFD00B"/>
</svg>
