<svg width="511" height="512" viewBox="0 0 511 512" fill="none" xmlns="http://www.w3.org/2000/svg">
<path d="M503.078 0.833008H178.243C173.868 0.833008 170.321 4.37977 170.321 8.75493V163.232C170.321 167.608 173.868 171.154 178.243 171.154H503.078C507.453 171.154 511 167.608 511 163.232V8.75493C511 4.37977 507.453 0.833008 503.078 0.833008Z" fill="#1E964E"/>
<path d="M501.746 0.833008H349.933C344.822 0.833008 340.679 4.97627 340.679 10.0873V332.257C340.679 337.368 344.822 341.512 349.933 341.512H501.746C506.857 341.512 511 337.368 511 332.257V10.0873C511 4.97627 506.857 0.833008 501.746 0.833008Z" fill="#1E964E"/>
<path d="M159.735 341.512H10.5866C4.73977 341.512 0 346.251 0 352.098V501.246C0 507.093 4.73977 511.833 10.5866 511.833H159.735C165.582 511.833 170.321 507.093 170.321 501.246V352.098C170.321 346.251 165.582 341.512 159.735 341.512Z" fill="#1E964E"/>
<path d="M20.741 21.5738L490.259 491.092C497.929 498.762 492.491 511.833 481.653 511.833H281.804C278.6 511.833 275.503 510.536 273.198 508.268L3.56486 238.598C1.29631 236.33 0 233.233 0 229.992V30.1438C0 19.3052 13.0712 13.9039 20.741 21.5378V21.5738Z" fill="#1E964E"/>
</svg>
