<svg width="449" height="449" viewBox="0 0 449 449" fill="none" xmlns="http://www.w3.org/2000/svg">
<path fill-rule="evenodd" clipRule="evenodd" d="M292.383 -0.000244141H6.96069C3.11636 -0.000244141 -6.10352e-05 3.11619 -6.10352e-05 6.96051V142.695C-6.10352e-05 142.705 0 142.715 0 142.725V291.212C0 295.703 3.64056 299.344 8.13144 299.344H141.525C146.016 299.344 149.656 295.703 149.656 291.212V149.656H292.383C296.228 149.656 299.344 146.54 299.344 142.695V6.96051C299.344 3.11619 296.228 -0.000244141 292.383 -0.000244141Z" fill="#093233"/>
<path d="M308.646 299.344H439.698C444.836 299.344 449 303.508 449 308.646V439.698C449 444.835 444.836 449 439.698 449H308.646C303.509 449 299.344 444.835 299.344 439.698V308.646C299.344 303.508 303.509 299.344 308.646 299.344Z" fill="#093233"/>
<path d="M430.776 18.2245L18.2245 430.776C11.4853 437.515 16.2629 449 25.7865 449H201.387C204.203 449 206.924 447.861 208.949 445.868L445.868 208.917C447.861 206.924 449 204.203 449 201.356V25.7547C449 16.2312 437.515 11.4852 430.776 18.1928V18.2245Z" fill="#093233"/>
</svg>
