<svg width="279" height="279" viewBox="0 0 279 279" fill="none" xmlns="http://www.w3.org/2000/svg">
<g opacity="0.2">
<path fill-rule="evenodd" clip-rule="evenodd" d="M191.059 -0.000244141H273.947C273.953 -0.000244141 273.959 -0.000234257 273.965 -0.000214507H274.675C277.063 -0.000214507 279 1.93628 279 4.32506V5.05247V88.668V180.954C279 183.744 276.738 186.006 273.947 186.006H191.059C188.269 186.006 186.007 183.744 186.007 180.954V92.9932H97.3187C94.9299 92.9932 92.9934 91.0567 92.9934 88.668V4.32506C92.9934 1.93628 94.9299 -0.000214507 97.3187 -0.000214507H191.042C191.048 -0.000234257 191.053 -0.000244141 191.059 -0.000244141Z" fill="#0D2434"/>
<path d="M87.2133 186.006H5.78014C2.58786 186.006 0 188.594 0 191.786V273.22C0 276.412 2.58786 279 5.78014 279H87.2133C90.4056 279 92.9935 276.412 92.9935 273.22V191.786C92.9935 188.594 90.4056 186.006 87.2133 186.006Z" fill="#0D2434"/>
<path d="M11.3244 11.3242L267.676 267.675C271.863 271.863 268.895 279 262.977 279H153.862C152.112 279 150.421 278.292 149.163 277.053L1.94637 129.817C0.707773 128.579 0 126.888 0 125.118V16.0034C0 10.0856 7.13671 7.13656 11.3244 11.3046V11.3242Z" fill="#0D2434"/>
</g>
</svg>
