<svg width="279" height="279" viewBox="0 0 279 279" fill="none" xmlns="http://www.w3.org/2000/svg">
<g opacity="0.3">
<path fill-rule="evenodd" clip-rule="evenodd" d="M191.059 -0.00012207H273.947C273.953 -0.00012207 273.959 -0.000112187 273.965 -9.24364e-05H274.675C277.063 -9.24364e-05 279 1.9364 279 4.32518V5.05259V88.6681V180.954C279 183.744 276.738 186.006 273.947 186.006H191.059C188.269 186.006 186.007 183.744 186.007 180.954V92.9934H97.3187C94.9299 92.9934 92.9934 91.0569 92.9934 88.6681V4.32518C92.9934 1.9364 94.9299 -9.24364e-05 97.3187 -9.24364e-05H191.042C191.048 -0.000112187 191.053 -0.00012207 191.059 -0.00012207Z" fill="white"/>
<path d="M87.2133 186.006H5.78014C2.58786 186.006 0 188.594 0 191.786V273.22C0 276.412 2.58786 279 5.78014 279H87.2133C90.4056 279 92.9935 276.412 92.9935 273.22V191.786C92.9935 188.594 90.4056 186.006 87.2133 186.006Z" fill="white"/>
<path d="M11.3244 11.3243L267.676 267.676C271.863 271.863 268.895 279 262.977 279H153.862C152.112 279 150.421 278.292 149.163 277.054L1.94637 129.817C0.707773 128.579 0 126.888 0 125.118V16.0035C0 10.0857 7.13671 7.13668 11.3244 11.3047V11.3243Z" fill="white"/>
</g>
</svg>
